<svg width="157" height="54" fill="none" xmlns="http://www.w3.org/2000/svg"><g clip-path="url(#a)"><path d="M90.257 2.09a1.194 1.194 0 0 0-.488-.996 1.553 1.553 0 0 0-.517-.25 2.23 2.23 0 0 0-.614-.09c-.188 0-.37.021-.537.07a1.595 1.595 0 0 0-.454.208c-.132.09-.237.2-.32.332a.9.9 0 0 0-.12.464v.055c0 .187.043.346.12.478.076.131.195.242.348.34.154.096.342.172.573.234.23.063.495.118.802.16.719.11 1.242.318 1.584.623.342.304.51.72.51 1.232v.118c0 .29-.05.56-.154.803-.105.242-.251.45-.447.623a2.171 2.171 0 0 1-.74.408 3.255 3.255 0 0 1-1.018.146c-.44 0-.824-.063-1.159-.187a2.238 2.238 0 0 1-.837-.526 2.357 2.357 0 0 1-.516-.783 2.65 2.65 0 0 1-.175-.983v-.284h.824v.236c0 .595.167 1.038.495 1.336.328.298.789.443 1.375.443.51 0 .893-.11 1.144-.332.258-.222.384-.52.384-.886v-.063c0-.353-.133-.63-.398-.817-.265-.187-.69-.325-1.284-.408a5.646 5.646 0 0 1-.935-.208A2.407 2.407 0 0 1 87 3.22a1.465 1.465 0 0 1-.447-.547 1.696 1.696 0 0 1-.154-.754V1.8c0-.263.056-.505.168-.727.111-.221.265-.408.467-.574.196-.16.44-.284.712-.374.28-.09.58-.132.914-.132.384 0 .726.056 1.033.166.3.111.558.256.767.443a1.89 1.89 0 0 1 .635 1.433v.409h-.823V2.09h-.014Zm5.687.022h.76v4.811h-.76v-.872h-.119a1.944 1.944 0 0 1-.614.734c-.25.18-.579.27-.97.27-.265 0-.516-.042-.74-.132a1.513 1.513 0 0 1-.578-.394 1.697 1.697 0 0 1-.37-.651 2.72 2.72 0 0 1-.133-.9V2.112h.76V4.88c0 .505.105.872.315 1.108.21.235.53.346.956.346.46 0 .823-.16 1.088-.471.265-.312.398-.734.398-1.253v-2.5h.007Zm3.105 6.75h-.76v-6.75h.76v.754h.119c.167-.29.404-.512.704-.664a2.237 2.237 0 0 1 1.829-.063 2.17 2.17 0 0 1 1.2 1.246c.118.305.181.651.181 1.039v.194c0 .394-.056.74-.174 1.045-.119.305-.279.56-.482.769a2.08 2.08 0 0 1-.718.47c-.273.104-.566.16-.873.16-.153 0-.314-.021-.481-.056a1.875 1.875 0 0 1-.468-.166 2.285 2.285 0 0 1-.404-.27 1.393 1.393 0 0 1-.314-.38h-.119v2.672Zm1.626-2.52a1.61 1.61 0 0 0 1.158-.471c.147-.146.258-.332.342-.54.084-.215.119-.45.119-.72v-.194c0-.256-.042-.492-.119-.706a1.552 1.552 0 0 0-.858-.893 1.635 1.635 0 0 0-.642-.125c-.23 0-.44.042-.635.132a1.633 1.633 0 0 0-.858.92 1.963 1.963 0 0 0-.126.714v.117c0 .263.042.506.126.72.083.215.202.402.349.561a1.518 1.518 0 0 0 1.144.485Zm4.354 2.52h-.761v-6.75h.761v.754h.119c.167-.29.404-.512.704-.664a2.241 2.241 0 0 1 1.829-.063 2.17 2.17 0 0 1 1.2 1.246c.118.305.181.651.181 1.039v.194c0 .394-.056.74-.174 1.045-.119.305-.279.56-.482.769a2.08 2.08 0 0 1-.718.47c-.273.104-.566.16-.873.16-.153 0-.314-.021-.481-.056a1.884 1.884 0 0 1-.468-.166 2.276 2.276 0 0 1-.404-.27 1.373 1.373 0 0 1-.314-.38h-.119v2.672Zm1.626-2.52a1.61 1.61 0 0 0 1.158-.471c.147-.146.258-.332.342-.54.084-.215.119-.45.119-.72v-.194c0-.256-.042-.492-.119-.706a1.552 1.552 0 0 0-.858-.893 1.635 1.635 0 0 0-.642-.125c-.23 0-.44.042-.635.132s-.363.207-.509.36a1.614 1.614 0 0 0-.349.56 1.959 1.959 0 0 0-.126.714v.117c0 .263.042.506.126.72.083.215.202.402.349.561a1.505 1.505 0 0 0 1.144.485Zm8.338-1.766c0 .402-.069.755-.202 1.06a2.408 2.408 0 0 1-.53.775 2.28 2.28 0 0 1-.775.478 2.61 2.61 0 0 1-.921.166 2.61 2.61 0 0 1-.928-.166 2.35 2.35 0 0 1-.775-.478 2.302 2.302 0 0 1-.53-.776 2.644 2.644 0 0 1-.202-1.059V4.46c0-.395.07-.748.202-1.053a2.43 2.43 0 0 1 .537-.782c.224-.215.482-.374.775-.485a2.6 2.6 0 0 1 .921-.166 2.6 2.6 0 0 1 .921.166c.293.111.551.27.775.485.223.215.404.47.537.782.133.305.202.658.202 1.053v.117h-.007Zm-2.428 1.766c.237 0 .454-.042.649-.125a1.539 1.539 0 0 0 .872-.913 2.02 2.02 0 0 0 .126-.735v-.11c0-.257-.042-.499-.126-.714a1.772 1.772 0 0 0-.349-.56 1.559 1.559 0 0 0-.53-.36 1.689 1.689 0 0 0-.642-.132c-.23 0-.44.042-.642.132s-.377.207-.53.36a1.63 1.63 0 0 0-.349.56 1.959 1.959 0 0 0-.126.714v.117c0 .27.042.513.126.734.084.215.202.402.349.56.146.153.321.27.523.354.195.076.412.118.649.118Zm3.566-4.23h1.758v.637h.119c.125-.264.3-.464.53-.589.23-.125.488-.187.782-.187.488 0 .879.16 1.179.478.3.318.46.782.481 1.384l-.802.118c0-.443-.105-.768-.321-.962a1.15 1.15 0 0 0-.789-.298c-.202 0-.376.042-.523.118a1.088 1.088 0 0 0-.37.318 1.434 1.434 0 0 0-.216.478 2.21 2.21 0 0 0-.07.582v2.035h1.228v.7h-3.105v-.7h1.117V2.81h-.998v-.7Zm6.084 0h1.521V.139h.761v1.98h1.877v.699h-1.877V5.94c0 .194.091.29.265.29h1.375v.693h-1.654a.717.717 0 0 1-.544-.214.748.748 0 0 1-.21-.54V2.81h-1.521v-.7h.007Zm6.699 2.637c.021.478.167.866.447 1.156.279.291.669.437 1.172.437.23 0 .425-.028.593-.077.167-.048.314-.124.433-.214a1.17 1.17 0 0 0 .293-.319 1.96 1.96 0 0 0 .181-.38l.726.193a2.15 2.15 0 0 1-.754 1.087c-.37.284-.865.423-1.493.423-.342 0-.663-.063-.949-.18a2.162 2.162 0 0 1-.747-.506 2.36 2.36 0 0 1-.488-.782 2.739 2.739 0 0 1-.175-1.01V4.34c0-.332.063-.65.182-.942.118-.29.286-.54.502-.747a2.41 2.41 0 0 1 1.696-.672c.398 0 .739.07 1.033.215.293.145.53.325.711.54a2.1 2.1 0 0 1 .412.699c.091.25.133.485.133.7v.622h-3.908V4.75Zm1.619-2.056c-.216 0-.412.035-.6.104-.189.07-.349.166-.489.284a1.595 1.595 0 0 0-.342.43c-.09.165-.146.345-.174.54h3.126a1.337 1.337 0 0 0-.154-.562 1.475 1.475 0 0 0-.341-.429 1.49 1.49 0 0 0-.482-.27 1.607 1.607 0 0 0-.544-.097Zm7.557 3.49h-.119a1.348 1.348 0 0 1-.3.387 1.793 1.793 0 0 1-.837.43 2.077 2.077 0 0 1-.447.055c-.328 0-.628-.056-.907-.166a2.27 2.27 0 0 1-.74-.478 2.196 2.196 0 0 1-.495-.769 2.886 2.886 0 0 1-.181-1.052v-.152a2.7 2.7 0 0 1 .188-1.039c.126-.304.293-.567.495-.775.203-.208.454-.367.733-.478.279-.11.579-.166.886-.166.335 0 .642.07.935.215.293.145.517.367.67.671h.119V.14h.76v6.784h-.76v-.74Zm-1.626.159c.23 0 .44-.042.635-.125.195-.083.37-.2.516-.36.147-.16.265-.34.349-.56a1.97 1.97 0 0 0 .126-.72v-.118c0-.257-.042-.499-.126-.714a1.772 1.772 0 0 0-.349-.56 1.572 1.572 0 0 0-.516-.36 1.503 1.503 0 0 0-.628-.132c-.23 0-.44.042-.642.125-.195.083-.37.2-.516.36a1.63 1.63 0 0 0-.342.554 1.92 1.92 0 0 0-.119.706v.152c0 .27.042.512.119.727.083.215.195.395.342.547.146.152.321.27.509.346.195.09.412.132.642.132Zm10.418.581h-.761V.14h.761v2.734H147c.168-.29.405-.512.705-.664.3-.153.628-.229.977-.229.3 0 .579.055.851.166a2.142 2.142 0 0 1 1.2 1.246c.119.305.182.651.182 1.039v.194c0 .394-.056.74-.175 1.045-.118.305-.279.56-.481.769a2.08 2.08 0 0 1-.719.47c-.272.104-.565.16-.872.16-.153 0-.314-.021-.481-.056a1.884 1.884 0 0 1-.468-.166 2.32 2.32 0 0 1-.405-.27 1.41 1.41 0 0 1-.314-.38h-.118v.726Zm1.619-.581a1.61 1.61 0 0 0 1.158-.471c.146-.146.258-.332.342-.54.084-.215.118-.45.118-.72v-.194c0-.256-.041-.492-.118-.706a1.563 1.563 0 0 0-1.5-1.018c-.231 0-.44.042-.635.132-.196.09-.363.207-.51.36a1.644 1.644 0 0 0-.349.56 1.98 1.98 0 0 0-.125.714v.117c0 .263.042.506.125.72.084.215.203.402.349.561a1.519 1.519 0 0 0 1.145.485Zm7.291-.291h-.118a1.95 1.95 0 0 1-.614.734c-.251.18-.579.27-.97.27a1.98 1.98 0 0 1-.74-.132 1.51 1.51 0 0 1-.579-.394 1.708 1.708 0 0 1-.37-.651 2.712 2.712 0 0 1-.132-.9V2.112h.76V4.88c0 .505.105.872.314 1.108.21.235.53.346.956.346.461 0 .824-.16 1.089-.471.265-.312.397-.734.397-1.253v-2.5h.761V8.1a.73.73 0 0 1-.209.54.72.72 0 0 1-.545.214h-2.763v-.7h2.491c.175 0 .265-.096.265-.29V6.05h.007Zm-69.854 5.58h2.56v4.687h.084l3.887-4.687h2.945l-4.557 5.434 4.738 6.197h-3.168l-3.852-5.2h-.083v5.2H85.93V11.63h.007ZM97.29 22.61c-.524-.54-.789-1.267-.789-2.174v-5.483h2.345v4.998c0 .478.125.845.37 1.094.244.25.593.381 1.039.381.405 0 .768-.11 1.103-.34a2.66 2.66 0 0 0 .823-.906v-5.227h2.345v8.308h-2.345V22.23c-.747.796-1.661 1.198-2.728 1.198-.921 0-1.64-.27-2.163-.817Zm9.999.18c-.628-.43-1.047-1.025-1.256-1.8l.07-.215 1.793-.533c.202.928.802 1.399 1.807 1.399.349 0 .628-.07.851-.215a.678.678 0 0 0 .335-.595c0-.264-.125-.471-.376-.623-.252-.153-.74-.319-1.466-.506-.879-.207-1.549-.52-1.995-.92-.447-.402-.67-.942-.67-1.607 0-.443.125-.844.377-1.204.251-.36.607-.644 1.06-.859a3.793 3.793 0 0 1 1.577-.318c.879 0 1.605.194 2.17.574.565.381.928.921 1.096 1.62l-.098.18-1.772.43c-.077-.388-.245-.686-.503-.887-.258-.207-.572-.304-.935-.304-.279 0-.516.055-.704.173-.189.117-.287.277-.287.47 0 .243.154.444.468.596.314.152.879.346 1.709.568.859.235 1.494.54 1.898.913.405.374.614.9.614 1.565 0 .512-.139.976-.411 1.399-.272.422-.663.747-1.172.99-.51.235-1.096.36-1.766.36-.984-.014-1.793-.229-2.414-.651Zm8.296.332a2.419 2.419 0 0 1-.969-.88 2.482 2.482 0 0 1-.363-1.335c0-.755.265-1.357.788-1.821.523-.457 1.242-.734 2.163-.824l2.261-.235v-.367c0-.374-.119-.672-.363-.88-.237-.207-.579-.318-1.012-.318-.39 0-.704.104-.935.305-.237.207-.376.484-.432.837l-1.975-.166-.084-.097c.168-.83.566-1.467 1.187-1.903.628-.437 1.381-.658 2.274-.658 1.061 0 1.919.263 2.582.79.656.525.991 1.266.991 2.214v2.984c0 .257.056.45.16.582a.54.54 0 0 0 .447.2c.126 0 .23-.013.321-.048l.084.097v1.592a3.68 3.68 0 0 1-1.159.166c-.907 0-1.528-.373-1.877-1.128h-.118c-.391.402-.796.7-1.207.9-.412.2-.887.298-1.424.298a3 3 0 0 1-1.34-.305Zm2.931-1.758c.307-.201.621-.506.949-.914v-.963l-1.842.236c-.391.041-.691.16-.893.346a.894.894 0 0 0-.307.7c0 .276.097.498.293.657.195.16.446.242.746.242.391 0 .747-.104 1.054-.304Zm5.687-6.411h2.345v.983c.655-.761 1.486-1.15 2.477-1.15.99 0 1.688.388 2.093 1.164.747-.776 1.64-1.163 2.679-1.163.859 0 1.522.235 1.996.713.468.478.705 1.128.705 1.96v5.8h-2.345v-5.28c0-.796-.356-1.197-1.074-1.197-.649 0-1.173.346-1.577 1.045v5.435h-2.345v-5.269c0-.81-.349-1.211-1.039-1.211-.321 0-.628.104-.908.318a2.275 2.275 0 0 0-.669.817v5.351h-2.338v-8.314Zm15.232 8.17a2.419 2.419 0 0 1-.969-.88 2.482 2.482 0 0 1-.363-1.336c0-.755.265-1.357.788-1.821.524-.457 1.242-.734 2.163-.824l2.261-.235v-.367c0-.374-.119-.672-.363-.88-.237-.207-.579-.318-1.012-.318-.39 0-.704.104-.935.305-.237.207-.376.484-.432.837l-1.975-.166-.084-.097c.168-.83.566-1.467 1.187-1.903.628-.437 1.381-.658 2.274-.658 1.061 0 1.919.263 2.582.79.656.525.991 1.266.991 2.214v2.984c0 .257.056.45.16.582a.54.54 0 0 0 .447.2c.126 0 .23-.013.321-.048l.084.097v1.592a3.68 3.68 0 0 1-1.159.166c-.907 0-1.528-.373-1.877-1.128h-.118c-.391.402-.796.7-1.207.9-.412.2-.887.298-1.424.298-.488 0-.935-.104-1.34-.305Zm2.931-1.76c.307-.2.621-.505.949-.913v-.963l-1.842.236c-.391.041-.691.16-.893.346a.894.894 0 0 0-.307.7c0 .276.097.498.293.657.195.16.446.242.746.242.391 0 .747-.104 1.054-.304Zm-53.484 7.63h-2.945v-2.16h8.457v2.16H91.45v9.47h-2.56v-9.47h-.008Zm5.91 1.163h2.344v.997a3.55 3.55 0 0 1 1.04-.845c.39-.207.823-.318 1.29-.318.336 0 .601.041.803.131l-.3 1.828-.118.118a2.422 2.422 0 0 0-.573-.083c-.46 0-.872.124-1.242.38-.37.257-.67.623-.907 1.115v4.985h-2.344v-8.308h.007Zm8.233 7.934a3.854 3.854 0 0 1-1.535-1.523c-.37-.651-.551-1.406-.551-2.257 0-.845.195-1.593.593-2.243a4.236 4.236 0 0 1 1.584-1.53 4.292 4.292 0 0 1 2.128-.547c.824 0 1.556.173 2.191.512a3.619 3.619 0 0 1 1.48 1.482c.349.644.53 1.398.53 2.277v.617h-6.294c.056.574.279 1.031.663 1.37.384.34.879.506 1.479.506.963 0 1.598-.43 1.912-1.281l1.961.2.118.202c-.314.92-.809 1.606-1.5 2.07-.691.463-1.535.692-2.54.692-.823-.007-1.563-.187-2.219-.547Zm4.215-4.708c-.056-.498-.265-.9-.635-1.198-.37-.297-.823-.45-1.375-.45a2.04 2.04 0 0 0-1.297.45c-.377.298-.615.7-.712 1.198h4.019Zm4.71 4.943a2.415 2.415 0 0 1-.97-.879 2.492 2.492 0 0 1-.363-1.336c0-.755.265-1.357.789-1.82.523-.458 1.242-.735 2.163-.825l2.261-.235v-.367c0-.374-.119-.672-.363-.88-.237-.207-.579-.318-1.012-.318-.391 0-.705.104-.935.305-.237.207-.377.485-.433.838l-1.974-.167-.084-.097c.167-.83.565-1.467 1.186-1.903.621-.436 1.382-.658 2.275-.658 1.061 0 1.919.263 2.582.79.656.525.991 1.266.991 2.215v2.977c0 .256.055.45.16.581.105.132.251.2.447.2a.89.89 0 0 0 .321-.048l.083.097v1.593c-.335.11-.718.166-1.158.166-.907 0-1.528-.374-1.877-1.129h-.119c-.39.402-.795.7-1.207.9-.412.201-.886.298-1.423.298a2.901 2.901 0 0 1-1.34-.298Zm2.931-1.758c.307-.201.621-.506.949-.914v-.962l-1.842.235c-.391.041-.691.16-.894.346a.897.897 0 0 0-.307.7c0 .276.098.498.293.657.196.16.447.242.747.242.391 0 .747-.103 1.054-.304Zm6.322 1.426c-.628-.43-1.047-1.025-1.256-1.8l.069-.215 1.794-.533c.202.928.802 1.399 1.807 1.399.349 0 .628-.07.851-.215a.68.68 0 0 0 .335-.595c0-.263-.126-.471-.377-.623-.251-.153-.739-.319-1.465-.506-.879-.207-1.549-.519-1.996-.92-.446-.402-.67-.942-.67-1.607 0-.443.126-.844.377-1.204s.607-.644 1.061-.859a3.79 3.79 0 0 1 1.577-.318c.879 0 1.605.194 2.17.574.565.381.928.921 1.095 1.62l-.097.18-1.773.43c-.076-.388-.244-.686-.502-.886a1.483 1.483 0 0 0-.935-.305c-.279 0-.516.055-.705.173-.188.118-.286.277-.286.47 0 .243.154.444.468.596.314.152.879.346 1.709.568.858.235 1.493.54 1.898.914.405.373.614.9.614 1.564 0 .512-.139.976-.412 1.399-.272.422-.662.747-1.172.99-.509.235-1.095.36-1.765.36-.984-.014-1.786-.229-2.414-.651Zm8.087-.18c-.524-.54-.789-1.267-.789-2.174v-5.483h2.345v4.999c0 .477.125.844.37 1.093.244.256.593.381 1.039.381.405 0 .768-.11 1.103-.34a2.66 2.66 0 0 0 .823-.906V30.15h2.345v8.308h-2.345v-1.032c-.746.796-1.661 1.198-2.728 1.198-.914.007-1.633-.263-2.163-.81Zm9.315-7.657h2.345v.997c.3-.353.649-.637 1.039-.845a2.721 2.721 0 0 1 1.291-.318c.335 0 .6.041.803.131l-.3 1.828-.119.118a2.422 2.422 0 0 0-.572-.083c-.461 0-.872.124-1.242.38-.37.257-.67.623-.907 1.115v4.985h-2.345v-8.308h.007Zm9.692 8.093-3.447-8.093h2.68l1.709 4.14.084 1.212h.133l2.128-5.352h2.477l-4.759 11.63h-2.442l1.437-3.537ZM88.91 53.225a5.678 5.678 0 0 1-2.177-2.133c-.53-.907-.795-1.931-.795-3.073 0-1.15.258-2.181.781-3.088a5.522 5.522 0 0 1 2.143-2.125c.907-.513 1.94-.762 3.09-.762 1.34 0 2.492.325 3.448.983.963.65 1.598 1.572 1.912 2.755l-.133.215-2.296.319c-.202-.679-.544-1.191-1.04-1.544-.488-.353-1.123-.533-1.89-.533-.67 0-1.263.159-1.787.484a3.295 3.295 0 0 0-1.214 1.343c-.293.575-.432 1.232-.432 1.96 0 .74.14 1.398.425 1.959a3.165 3.165 0 0 0 1.221 1.322c.53.319 1.152.47 1.87.47.824 0 1.487-.207 1.982-.615.495-.409.823-.997.977-1.759h-4.089v-1.96h6.517v.95c0 1.093-.223 2.07-.663 2.914a4.867 4.867 0 0 1-1.89 1.987c-.824.478-1.78.713-2.876.713-1.13-.007-2.163-.263-3.084-.782Zm10.32-7.699h2.345v.997c.3-.353.649-.637 1.04-.844.39-.208.823-.319 1.291-.319.335 0 .6.042.802.132l-.3 1.827-.119.118a2.415 2.415 0 0 0-.572-.083c-.46 0-.872.124-1.242.38-.37.257-.67.624-.907 1.115v4.985h-2.344v-8.308h.007Zm7.348 8.17a2.415 2.415 0 0 1-.97-.88 2.491 2.491 0 0 1-.363-1.336c0-.755.266-1.357.789-1.82.523-.458 1.242-.734 2.163-.824l2.261-.236v-.367c0-.374-.119-.671-.363-.88-.237-.207-.579-.318-1.012-.318-.391 0-.705.104-.935.305-.23.2-.377.485-.433.838l-1.974-.166-.084-.097c.168-.831.565-1.468 1.186-1.904.621-.436 1.382-.658 2.275-.658 1.061 0 1.919.263 2.582.79.656.526.991 1.266.991 2.215v2.977c0 .256.055.45.16.581a.532.532 0 0 0 .44.201c.125 0 .23-.014.321-.048l.083.096v1.593c-.334.11-.718.166-1.158.166-.9 0-1.528-.374-1.877-1.129h-.119c-.39.402-.795.7-1.207.9-.411.201-.886.298-1.423.298a2.875 2.875 0 0 1-1.333-.297Zm2.931-1.759c.307-.2.621-.505.949-.914v-.962l-1.842.235c-.391.042-.691.16-.894.346a.897.897 0 0 0-.307.7c0 .276.098.498.294.657.195.16.446.243.746.243.391 0 .747-.104 1.054-.305Zm5.687-6.41h2.344v1.08c.796-.831 1.717-1.247 2.777-1.247.907 0 1.612.263 2.129.782.516.52.767 1.191.767 2.008v5.684h-2.344v-4.998c0-.485-.112-.859-.342-1.108-.231-.25-.566-.374-1.012-.374a1.97 1.97 0 0 0-1.124.36 2.738 2.738 0 0 0-.851.886v5.234h-2.344v-8.308Zm11.22 7.843c-.461-.422-.684-1.052-.684-1.897v-4.022h-1.493v-1.925h1.493v-2.374h.3l2.024.699v1.675h1.772v1.925h-1.772v3.821c0 .264.076.471.237.617.153.145.377.214.67.214.174 0 .405-.041.67-.117l.118.069v1.779c-.481.11-.97.166-1.472.166-.788 0-1.41-.208-1.863-.63Zm-60.56-39.468c1.012.789 4.103 3.413 4.103 3.413s-4.054 1.516-4.94 2.194a9.154 9.154 0 0 0-2.882 3.988c-.691 1.675-1.961 5.24-2.798 7.013-.838 1.772-2.205 4.085-8.2 7.165-5.058 2.61-7.55 3.628-8.254 5.435a5.595 5.595 0 0 0 .802 5.497c1.005 1.212 2.987 3.371 5.045 3.988 2.059.609 2.212 1.405 2.212 1.405a16.438 16.438 0 0 0-3.942-.63 16.05 16.05 0 0 0-4.368.63c0-.79 1.528-1.405 1.528-1.405s-.056-1.053-3-2.991a6.835 6.835 0 0 1-3.099-4.97s-4.898-.32-5.156-.32l3.014-.886C30.918 40.813 5.22 50.934 5.22 50.934v-.706a6.993 6.993 0 0 1-5.052.762l3.105-2.396h-2.17l21.554-11.125-4.8-.049s18.658-11.831 23.347-14.69c4.696-2.86 7.648-3.656 8.806-4.452 1.152-.803 3.998-3.572 5.47-4.52 1.473-.95 3.657-2.361 5.8-2.091a8.621 8.621 0 0 1 4.577 2.236Z" fill="#F5F5F5"/></g><defs><clipPath id="a"><path fill="#fff" d="M0 0h157v54H0z"/></clipPath></defs></svg>